<?xml version="1.0" encoding="utf-8"?>
<!-- Generator: Adobe Illustrator 26.0.3, SVG Export Plug-In . SVG Version: 6.00 Build 0)  -->
<svg version="1.1" id="Layer_1" xmlns="http://www.w3.org/2000/svg" xmlns:xlink="http://www.w3.org/1999/xlink" x="0px" y="0px"
	 viewBox="0 0 1000 1000" style="enable-background:new 0 0 1000 1000;" xml:space="preserve">
<style type="text/css">
	.st0{fill:#FFFFFF;}
	.st1{fill:#D81F2A;}
</style>
<g>
	<g>
		<g>
			<g>
				<g>
					<path class="st0" d="M330.7,481c54.6,12.1,113.5,27,170.3,43.4l-71.7,289H232.3L330.7,481z"/>
				</g>
				<g>
					<path class="st0" d="M651.3,494c-22.6-16.5-55.5-32-93.5-46.4l-18.9-75.5l-15.7,63.2c-52.4-17.7-111.2-33.2-165.3-45.8
						l60.6-204.9h235.4l142.5,469.3C764.3,593,717.4,542.2,651.3,494z"/>
				</g>
				<g>
					<path class="st0" d="M837.3,815.4H650.1l-66.6-265.2c9.1,3.1,18,6.2,26.7,9.3C742.1,606.5,819.5,773.1,837.3,815.4z"/>
				</g>
			</g>
		</g>
		<g>
			<g>
				<g>
					<path class="st1" d="M837.5,801c-25.3-56.2-101.6-203.1-225.2-247.1c-10-3.5-20.1-7-30.5-10.5c-25.5-8.5-52.1-16.8-79.4-24.7
						c-56.7-16.5-115.6-31.4-170.1-43.4c-67.2-14.9-127.8-25.6-169.9-29.9l11.6-87c16.1,2.7,92.9,16,182,36.8
						c54.3,12.7,113.1,28.2,165.6,45.8c13.1,4.4,25.8,9,37.8,13.6c35.9,13.8,66.7,28.7,88.2,44.3c79.4,57.8,130.8,119.6,161.7,198.2
						c8.9,22.4,16,46.2,21.7,71.7C833.6,779.2,835.7,789.9,837.5,801z"/>
				</g>
			</g>
		</g>
	</g>
</g>
</svg>
